<?xml version="1.0" encoding="UTF-8" standalone="no"?>
<!DOCTYPE svg PUBLIC "-//W3C//DTD SVG 1.1//EN" "http://www.w3.org/Graphics/SVG/1.1/DTD/svg11.dtd">
<!-- Created with Vectornator (http://vectornator.io/) -->
<svg height="100%" stroke-miterlimit="10" style="fill-rule:nonzero;clip-rule:evenodd;stroke-linecap:round;stroke-linejoin:round;" version="1.1" viewBox="0 0 285 70" width="100%" xml:space="preserve" xmlns="http://www.w3.org/2000/svg" xmlns:vectornator="http://vectornator.io" xmlns:xlink="http://www.w3.org/1999/xlink">
<defs/>
<g id="Слой-1" vectornator:layerName="Слой 1">
<g opacity="1">
<g opacity="1">
<path d="M0.265 11.0027L12.8453 11.0027L26.0726 29.4776L26.0726 11.0027L41.0971 11.0027L41.0971 58.9511L28.4449 58.9511L15.2895 40.5481L15.2895 58.9511L0.265 58.9511L0.265 11.0027Z" fill="#222222" fill-rule="nonzero" opacity="1" stroke="none"/>
<path d="M61.8696 11.0027L73.3716 11.0027L91.5592 58.9511L76.4628 58.9511L74.8813 54.6379L60.36 54.6379L58.7785 58.9511L43.6821 58.9511L61.8696 11.0027ZM70.8556 44.0706L67.6206 35.6598L64.3857 44.0706L70.8556 44.0706Z" fill="#222222" fill-rule="nonzero" opacity="1" stroke="none"/>
<path d="M97.3976 11.0027L105.521 31.8498L113.716 11.0027L130.466 11.0027L111.775 58.9511L99.3385 58.9511L80.6478 11.0027L97.3976 11.0027Z" fill="#222222" fill-rule="nonzero" opacity="1" stroke="none"/>
<path d="M134.045 11.0027L150.292 11.0027L150.292 58.9511L134.045 58.9511L134.045 11.0027Z" fill="#222222" fill-rule="nonzero" opacity="1" stroke="none"/>
<path d="M220.555 11.0027L232.057 11.0027L250.245 58.9511L235.149 58.9511L233.567 54.6379L219.046 54.6379L217.464 58.9511L202.368 58.9511L220.555 11.0027ZM229.541 44.0706L226.306 35.6598L223.071 44.0706L229.541 44.0706Z" fill="#222222" fill-rule="nonzero" opacity="1" stroke="none"/>
<path d="M254.542 38.3196L239.662 11.0027L256.699 11.0027L262.234 21.1387L267.698 11.0027L284.735 11.0027L269.854 38.3196L269.854 58.9511L254.542 58.9511L254.542 38.3196Z" fill="#222222" fill-rule="nonzero" opacity="1" stroke="none"/>
<path d="M185.718 27.3212C184.856 26.5545 183.778 25.9674 182.484 25.56C181.19 25.1527 179.92 24.949 178.674 24.949C177.284 24.949 176.014 25.2006 174.864 25.7038C173.713 26.207 172.719 26.9019 171.88 27.7885C171.042 28.6751 170.383 29.7414 169.904 30.9874C169.424 32.2334 169.185 33.5752 169.185 35.0129C169.185 36.4507 169.448 37.7925 169.975 39.0385C170.503 40.2845 171.221 41.3508 172.132 42.2374C173.043 43.124 174.109 43.8189 175.331 44.3221C176.553 44.8253 177.859 45.0769 179.249 45.0769C180.878 45.0769 182.364 44.7294 183.706 44.0345C185.048 43.3397 186.198 42.3932 187.156 41.1951L182.843 41.1951L182.843 31.1311L201.318 31.1311L201.318 47.0897C200.215 49.0545 198.898 50.8397 197.364 52.4451C195.83 54.0505 179.249 70 179.249 70C179.249 70 163.733 55.1648 161.457 52.9124C159.181 50.66 157.383 48.0002 156.065 44.9331C154.748 41.866 154.089 38.5593 154.089 35.0129C154.089 31.5625 154.712 28.3037 155.958 25.2366C157.204 22.1695 158.917 19.4977 161.097 17.2214C163.278 14.945 165.866 13.1479 168.861 11.83C171.856 10.5121 175.079 9.85313 178.53 9.85313C181.214 9.85313 183.538 10.1167 185.503 10.6439C187.468 11.171 189.121 11.7701 190.463 12.441C192.044 13.2078 193.362 14.0464 194.417 14.957L185.718 27.3212Z" fill="#ff003d" fill-rule="nonzero" opacity="1" stroke="none"/>
</g>
</g>
</g>
</svg>
