<?xml version="1.0" encoding="UTF-8" standalone="no"?>
<!DOCTYPE svg PUBLIC "-//W3C//DTD SVG 1.1//EN" "http://www.w3.org/Graphics/SVG/1.1/DTD/svg11.dtd">
<!-- Created with Vectornator (http://vectornator.io/) -->
<svg height="100%" stroke-miterlimit="10" style="fill-rule:nonzero;clip-rule:evenodd;stroke-linecap:round;stroke-linejoin:round;" version="1.1" viewBox="0 0 1024 1024" width="100%" xml:space="preserve" xmlns="http://www.w3.org/2000/svg" xmlns:vectornator="http://vectornator.io" xmlns:xlink="http://www.w3.org/1999/xlink">
<defs/>
<path d="M0 0L1024 0L1024 1024L0 1024L0 0Z" fill="#222222" fill-rule="nonzero" opacity="1" stroke="none" vectornator:artboardBackground="true"/>
<g id="Слой-1" vectornator:layerName="Слой 1">
<path d="M0 2.84217e-14L1024 2.84217e-14L1024 1024L0 1024L0 2.84217e-14Z" fill="#161616" fill-rule="nonzero" opacity="1" stroke="none"/>
<path d="M618.608 344.339C607.135 334.141 592.793 326.332 575.583 320.914C558.372 315.496 541.481 312.787 524.908 312.787C506.423 312.787 489.531 316.134 474.233 322.826C458.935 329.519 445.708 338.762 434.554 350.554C423.399 362.346 414.634 376.529 408.26 393.102C401.886 409.675 398.699 427.523 398.699 446.645C398.699 465.768 402.205 483.615 409.216 500.188C416.228 516.761 425.789 530.944 437.9 542.736C450.011 554.528 464.194 563.771 480.448 570.464C496.702 577.157 514.072 580.503 532.557 580.503C554.229 580.503 573.989 575.882 591.837 566.639C609.685 557.397 624.983 544.808 637.731 528.872L580.363 528.872L580.363 395.014L826.088 395.014L826.088 607.275C811.428 633.409 793.899 657.153 773.501 678.506C753.104 699.86 532.557 912 532.557 912C532.557 912 326.192 714.68 295.915 684.721C265.637 654.763 241.734 619.386 224.205 578.591C206.676 537.796 197.912 493.814 197.912 446.645C197.912 400.751 206.198 357.406 222.771 316.612C239.344 275.817 262.132 240.281 291.134 210.003C320.137 179.726 354.557 155.823 394.396 138.294C434.235 120.765 477.101 112 522.995 112C558.691 112 589.606 115.506 615.74 122.517C641.874 129.529 663.865 137.497 681.713 146.421C702.748 156.619 720.277 167.774 734.3 179.885L618.608 344.339Z" fill="#ff003d" fill-rule="nonzero" opacity="1" stroke="none"/>
</g>
</svg>
