<?xml version="1.0" encoding="UTF-8" standalone="no"?>
<!DOCTYPE svg PUBLIC "-//W3C//DTD SVG 1.1//EN" "http://www.w3.org/Graphics/SVG/1.1/DTD/svg11.dtd">
<!-- Created with Vectornator (http://vectornator.io/) -->
<svg height="100%" stroke-miterlimit="10" style="fill-rule:nonzero;clip-rule:evenodd;stroke-linecap:round;stroke-linejoin:round;" version="1.1" viewBox="0 0 285 70" width="100%" xml:space="preserve" xmlns="http://www.w3.org/2000/svg" xmlns:vectornator="http://vectornator.io" xmlns:xlink="http://www.w3.org/1999/xlink">
<defs/>
<clipPath id="ArtboardFrame">
<rect height="70" width="285" x="0" y="0"/>
</clipPath>
<g clip-path="url(#ArtboardFrame)" id="Слой-1" vectornator:layerName="Слой 1">
<g opacity="1" vectornator:layerName="g">
<path d="M-1.4766e-14 11.0048L12.6037 11.0048L25.8557 29.5142L25.8557 11.0048L40.9082 11.0048L40.9082 59.0426L28.2324 59.0426L15.0525 40.6053L15.0525 59.0426L-1.4766e-14 59.0426L-1.4766e-14 11.0048Z" fill="#000000" fill-rule="nonzero" opacity="1" stroke="none" vectornator:layerName="path"/>
<path d="M61.7194 11.0048L73.2428 11.0048L91.4643 59.0426L76.3398 59.0426L74.7553 54.7213L60.207 54.7213L58.6225 59.0426L43.498 59.0426L61.7194 11.0048ZM70.7221 44.1344L67.4811 35.7079L64.2402 44.1344L70.7221 44.1344Z" fill="#000000" fill-rule="nonzero" opacity="1" stroke="none" vectornator:layerName="path"/>
<path d="M97.3136 11.0048L105.452 31.8908L113.662 11.0048L130.444 11.0048L111.718 59.0426L99.2581 59.0426L80.5326 11.0048L97.3136 11.0048Z" fill="#000000" fill-rule="nonzero" opacity="1" stroke="none" vectornator:layerName="path"/>
<path d="M134.029 11.0048L150.307 11.0048L150.307 59.0426L134.029 59.0426L134.029 11.0048Z" fill="#000000" fill-rule="nonzero" opacity="1" stroke="none" vectornator:layerName="path"/>
<path d="M220.7 11.0048L232.224 11.0048L250.446 59.0426L235.322 59.0426L233.737 54.7213L219.189 54.7213L217.604 59.0426L202.48 59.0426L220.7 11.0048ZM229.703 44.1344L226.462 35.7079L223.221 44.1344L229.703 44.1344Z" fill="#000000" fill-rule="nonzero" opacity="1" stroke="none" vectornator:layerName="path"/>
<path d="M254.751 38.3726L239.843 11.0048L256.912 11.0048L262.457 21.1597L267.931 11.0048L285 11.0048L270.091 38.3726L270.091 59.0426L254.751 59.0426L254.751 38.3726Z" fill="#000000" fill-rule="nonzero" opacity="1" stroke="none" vectornator:layerName="path"/>
<path d="M185.799 27.3537C184.935 26.5856 183.855 25.9974 182.558 25.5893C181.262 25.1812 179.99 24.9771 178.741 24.9771C177.349 24.9771 176.076 25.2292 174.924 25.7333C173.771 26.2375 172.775 26.9337 171.935 27.8219C171.095 28.7102 170.435 29.7785 169.955 31.0268C169.474 32.2751 169.235 33.6194 169.235 35.0598C169.235 36.5003 169.498 37.8446 170.026 39.0929C170.555 40.3412 171.275 41.4095 172.187 42.2977C173.1 43.186 174.168 43.8822 175.392 44.3863C176.616 44.8905 177.925 45.1425 179.317 45.1425C180.95 45.1425 182.438 44.7944 183.783 44.0982C185.127 43.4021 186.279 42.4538 187.239 41.2535L182.918 41.2535L182.918 31.1707L201.428 31.1707L201.428 47.1591C200.323 49.1275 199.003 50.9161 197.466 52.5245C195.929 54.1328 179.317 70.1121 179.317 70.1121C179.317 70.1121 163.773 55.2492 161.492 52.9926C159.212 50.736 157.411 48.0713 156.09 44.9985C154.771 41.9256 154.111 38.6128 154.111 35.0598C154.111 31.6029 154.735 28.3381 155.983 25.2653C157.231 22.1924 158.948 19.5157 161.132 17.2351C163.317 14.9545 165.91 13.154 168.91 11.8337C171.911 10.5133 175.14 9.85313 178.597 9.85313C181.286 9.85313 183.614 10.1172 185.583 10.6454C187.552 11.1735 189.208 11.7737 190.552 12.4458C192.136 13.2141 193.457 14.0542 194.514 14.9665L185.799 27.3537Z" fill="#000000" fill-rule="nonzero" opacity="1" stroke="none" vectornator:layerName="path"/>
</g>
</g>
</svg>
