<?xml version="1.0" encoding="UTF-8" standalone="no"?>
<!DOCTYPE svg PUBLIC "-//W3C//DTD SVG 1.1//EN" "http://www.w3.org/Graphics/SVG/1.1/DTD/svg11.dtd">
<!-- Created with Vectornator (http://vectornator.io/) -->
<svg height="100%" stroke-miterlimit="10" style="fill-rule:nonzero;clip-rule:evenodd;stroke-linecap:round;stroke-linejoin:round;" version="1.1" viewBox="0 0 300 300" width="100%" xml:space="preserve" xmlns="http://www.w3.org/2000/svg" xmlns:vectornator="http://vectornator.io" xmlns:xlink="http://www.w3.org/1999/xlink">
<defs/>
<g id="Слой-1" vectornator:layerName="Слой 1">
<path d="M189.978 87.1272C185.676 83.3027 180.297 80.3746 173.843 78.3428C167.39 76.311 161.055 75.2952 154.84 75.2952C147.908 75.2952 141.574 76.5501 135.837 79.0599C130.101 81.5697 125.141 85.0357 120.958 89.4578C116.775 93.8799 113.488 99.1984 111.098 105.413C108.707 111.628 107.512 118.321 107.512 125.492C107.512 132.663 108.827 139.356 111.456 145.571C114.085 151.785 117.671 157.104 122.213 161.526C126.754 165.948 132.073 169.414 138.168 171.924C144.263 174.434 150.777 175.689 157.709 175.689C165.836 175.689 173.246 173.956 179.939 170.49C186.632 167.024 192.368 162.303 197.149 156.327L175.636 156.327L175.636 106.13L267.783 106.13L267.783 185.728C262.285 195.528 255.712 204.432 248.063 212.44C240.414 220.447 157.709 300 157.709 300C157.709 300 80.3221 226.005 68.9681 214.77C57.614 203.536 48.6503 190.27 42.077 174.972C35.5036 159.674 32.2169 143.18 32.2169 125.492C32.2169 108.282 35.3243 92.0274 41.5391 76.7293C47.754 61.4313 56.2994 48.1052 67.1753 36.7512C78.0513 25.3972 90.959 16.4335 105.899 9.86008C120.838 3.28669 136.913 0 154.123 0C167.509 0 179.102 1.31468 188.902 3.94403C198.703 6.57339 206.949 9.56129 213.642 12.9077C221.53 16.7323 228.104 20.9153 233.362 25.4569L189.978 87.1272Z" fill="#000000" fill-rule="nonzero" opacity="1" stroke="none"/>
</g>
</svg>
